<?xml version="1.0" encoding="utf-8"?>
<!-- Generator: Adobe Illustrator 18.0.0, SVG Export Plug-In . SVG Version: 6.00 Build 0)  -->
<!DOCTYPE svg PUBLIC "-//W3C//DTD SVG 1.1//EN" "http://www.w3.org/Graphics/SVG/1.1/DTD/svg11.dtd">
<svg version="1.1" id="Layer_1" xmlns="http://www.w3.org/2000/svg" xmlns:xlink="http://www.w3.org/1999/xlink" x="0px" y="0px"
	 viewBox="11.2 51.5 193.2 40.8" enable-background="new 11.2 51.5 193.2 40.8" xml:space="preserve">
<g>
	<g>
		<g>
			<g>
				<g>
					<path fill="#DDE72B" d="M21,68.9V58.7c0-2.2-1.8-4-4-4c-2.2,0-4,1.8-4,4v14.7l6.4-2.3c0,0,0-0.1,0-0.1
						C19.4,70,20.1,69.2,21,68.9z"/>
					<path fill="#DDE72B" d="M19.7,72L13,74.5v10.8c0,2.2,1.8,4,4,4c2.2,0,4-1.8,4-4V73.1C20.4,72.9,20,72.5,19.7,72z"/>
					<path fill="#1DA3DE" d="M23.7,71c0,0.1,0,0.2,0,0.3l5.3,2.4c0.3-0.4,0.7-0.6,1.1-0.8v-9.1c0-2.2-1.8-4-4-4c-2.2,0-4,1.8-4,4
						v5.1C23,69.1,23.7,70,23.7,71z"/>
					<path fill="#1DA3DE" d="M22.1,73.1v7.1c0,2.2,1.8,4,4,4c2.2,0,4-1.8,4-4v-3.1c-0.9-0.2-1.6-1.1-1.6-2.1c0-0.1,0-0.3,0-0.4
						l-5.2-2.4C23,72.6,22.6,72.9,22.1,73.1z"/>
				</g>
				<path fill="#96CD41" d="M39.2,68.9V57.3c0-2.2-1.8-4-4-4c-2.2,0-4,1.8-4,4v15.7c0.5,0.1,0.9,0.4,1.2,0.8l5.3-2.3
					c0-0.1,0-0.3,0-0.4C37.6,70,38.3,69.1,39.2,68.9z"/>
				<path fill="#96CD41" d="M31.2,77.1v9.6c0,2.2,1.8,4,4,4c2.2,0,4-1.8,4-4V73.1c-0.5-0.1-0.9-0.4-1.1-0.8l-5.3,2.3
					c0,0.1,0,0.3,0,0.4C32.8,76,32.2,76.9,31.2,77.1z"/>
			</g>
			<path fill="#D93097" d="M41.5,69.7l6.8-3v-5.2c0-2.2-1.8-4-4-4c-2.2,0-4,1.8-4,4v7.4C40.8,69,41.3,69.3,41.5,69.7z"/>
			<path fill="#D93097" d="M40.4,73.1v9.5c0,2.2,1.8,4,4,4c2.2,0,4-1.8,4-4V67.8l-6.4,2.8c0,0.1,0,0.2,0,0.4
				C42,72,41.3,72.8,40.4,73.1z"/>
			<circle fill="#DDE72B" cx="39.8" cy="71" r="1.2"/>
			<circle fill="#DDE72B" cx="30.7" cy="75" r="1.2"/>
			<circle fill="#DDE72B" cx="21.6" cy="71" r="1.2"/>
		</g>
	</g>
	<g>
		<g>
			<g>
				<path fill="#FFFFFF" d="M147.5,78.6h-3.1l-2.2-3.5H138v3.5h-2.7V68h8c1.1,0,2.1,0.3,2.8,1c0.7,0.7,1,1.5,1,2.6c0,1.6-0.7,2.6-2,3.2L147.5,78.6z
					 M142.9,72.9c0.5,0,0.8-0.1,1.1-0.4c0.3-0.3,0.4-0.6,0.4-1c0-0.8-0.5-1.2-1.5-1.2H138v2.6C138,72.9,142.9,72.9,142.9,72.9z"/>
			</g>
			<g>
				<path fill="#FFFFFF" d="M63.2,66.1c2.1,0,3.7,0.6,5,1.7c1.2,1.2,1.8,2.7,1.8,4.6c0,1.8-0.7,3.3-2,4.5c-1.2,1.1-2.7,1.6-4.4,1.6h-7.9V66.1H63.2z
					 M63.3,76.2c1.3,0,2.3-0.5,3-1.6c0.5-0.7,0.7-1.4,0.7-2.2c0-1.1-0.4-2.1-1.1-2.8c-0.7-0.7-1.6-1.1-2.7-1.1h-4.9v7.7L63.3,76.2
					L63.3,76.2z"/>
			</g>
			<g>
				<path fill="#FFFFFF" d="M84,78.6h-2.8L79.9,76h-5.5l-1.3,2.6h-2.8L75.6,68h3.1L84,78.6z M78.8,74l-1.7-3.5L75.4,74H78.8z"/>
			</g>
			<g>
				<path fill="#FFFFFF" d="M94.3,70.2h-4.5v8.4H87v-8.4h-4.5V68h11.8L94.3,70.2L94.3,70.2z"/>
			</g>
			<g>
				<path fill="#FFFFFF" d="M106.4,78.6h-2.8l-1.3-2.6h-5.5l-1.3,2.6h-2.8L98,68h3.1L106.4,78.6z M101.3,74l-1.7-3.5L97.9,74H101.3z"/>
			</g>
			<g>
				<path fill="#FFFFFF" d="M120.3,68.3H115v10.3h-2.7V68.3h-5.4v-2.2h13.4L120.3,68.3L120.3,68.3z"/>
			</g>
			<g>
				<path fill="#FFFFFF" d="M133.3,73.2c0,1.6-0.6,2.9-1.7,3.9c-1.3,1.1-3,1.7-5,1.7c-2,0-3.7-0.6-5-1.7c-1.1-1-1.7-2.3-1.7-3.9
					c0-1.6,0.6-2.9,1.7-3.9c1.3-1.1,3-1.7,5-1.7c2,0,3.6,0.6,5,1.7C132.8,70.4,133.3,71.7,133.3,73.2z M130.5,73.2
					c0-0.9-0.4-1.7-1.1-2.3c-0.7-0.6-1.7-0.9-2.8-0.9c-1.2,0-2.1,0.3-2.8,0.9c-0.7,0.6-1.1,1.4-1.1,2.3c0,1,0.4,1.8,1.1,2.3
					c0.7,0.6,1.7,0.9,2.9,0.9c1.2,0,2.1-0.3,2.8-0.9C130.2,75,130.5,74.2,130.5,73.2z"/>
			</g>
			<g>
				<path fill="#FFFFFF" d="M162,78.6h-3.1l-2.2-3.5h-4.2v3.5h-2.7V68h8c1.1,0,2.1,0.3,2.8,1c0.7,0.7,1,1.5,1,2.6c0,1.6-0.7,2.6-2,3.2L162,78.6z
					 M157.3,72.9c0.5,0,0.8-0.1,1.1-0.4c0.3-0.3,0.4-0.6,0.4-1c0-0.8-0.5-1.2-1.5-1.2h-4.9v2.6C152.4,72.9,157.3,72.9,157.3,72.9z"
					/>
			</g>
			<g>
				<path fill="#FFFFFF" d="M174.7,78.6H164V68h10.4v2.3h-7.6v1.9h5.2v2.2h-5.2v2h8V78.6z"/>
			</g>
			<g>
				<path fill="#FFFFFF" d="M189.2,78.6H186l-6-7h0v7h-2.7V68h3.2l6.1,7v-7h2.7L189.2,78.6L189.2,78.6z"/>
			</g>
			<g>
				<path fill="#FFFFFF" d="M203.1,70.2h-4.5v8.4h-2.7v-8.4h-4.5V68h11.8L203.1,70.2L203.1,70.2z"/>
			</g>
		</g>
	</g>
</g>
</svg>
