<?xml version="1.0" encoding="utf-8"?>
<!-- Generator: Adobe Illustrator 15.0.2, SVG Export Plug-In . SVG Version: 6.00 Build 0)  -->
<!DOCTYPE svg PUBLIC "-//W3C//DTD SVG 1.1//EN" "http://www.w3.org/Graphics/SVG/1.1/DTD/svg11.dtd">
<svg version="1.1" id="Layer_1" xmlns="http://www.w3.org/2000/svg" xmlns:xlink="http://www.w3.org/1999/xlink" x="0px" y="0px"
	 width="945.093px" height="206.779px" viewBox="0 0 945.093 206.779" enable-background="new 0 0 945.093 206.779"
	 xml:space="preserve">
<g>
	<g>
		<g>
			<g>
				<path fill="#DDE72B" d="M39.752,87.985V37.302c0-10.932-8.944-19.876-19.875-19.876S0.001,26.371,0.001,37.302v73.043
					l31.801-11.429v-0.496C31.801,93.451,35.28,89.476,39.752,87.985z"/>
				<path fill="#DDE72B" d="M33.292,103.389L0,115.811v53.665c0,10.933,8.944,19.876,19.876,19.876s19.875-8.943,19.875-19.876
					v-60.621C36.77,107.861,34.783,105.874,33.292,103.389z"/>
				<path fill="#1DA3DE" d="M53.168,98.421c0,0.496,0,0.993,0,1.49l26.335,11.926c1.491-1.988,3.479-2.981,5.466-3.977V62.643
					c0-10.932-8.944-19.876-19.876-19.876c-10.932,0-19.876,8.944-19.876,19.876v25.341C49.689,88.979,53.168,93.451,53.168,98.421z
					"/>
				<path fill="#1DA3DE" d="M45.217,108.855v35.279c0,10.932,8.944,19.876,19.876,19.876c10.932,0,19.876-8.944,19.876-19.876
					v-15.403c-4.472-0.994-7.951-5.466-7.951-10.436c0-0.496,0-1.49,0-1.987L51.18,104.383
					C49.689,106.371,47.702,107.861,45.217,108.855z"/>
			</g>
			<path fill="#96CD41" d="M130.187,87.985v-57.64c0-10.932-8.944-19.875-19.876-19.875s-19.875,8.943-19.875,19.875v78.013
				c2.484,0.497,4.472,1.987,5.962,3.977l26.335-11.429c0-0.497,0-1.491,0-1.988C122.236,93.451,125.714,88.979,130.187,87.985z"/>
			<path fill="#96CD41" d="M90.435,128.731v47.701c0,10.933,8.944,19.876,19.875,19.876c10.931,0,19.876-8.944,19.876-19.876
				v-67.577c-2.484-0.497-4.472-1.986-5.466-3.976l-26.335,11.429c0,0.497,0,1.491,0,1.987
				C98.385,123.265,95.404,127.737,90.435,128.731z"/>
		</g>
		<path fill="#D93097" d="M141.615,91.961l33.789-14.907V51.216c0-10.932-8.944-19.876-19.876-19.876
			c-10.932,0-19.875,8.944-19.875,19.876v36.77C138.137,88.482,140.621,89.973,141.615,91.961z"/>
		<path fill="#D93097" d="M136.149,108.855v47.205c0,10.933,8.944,19.875,19.876,19.875s19.876-8.942,19.876-19.875V82.519
			L144.1,96.432c0,0.497,0,0.994,0,1.988C144.1,103.389,140.621,107.364,136.149,108.855z"/>
		<circle fill="#DDE72B" cx="133.168" cy="98.421" r="5.962"/>
		<circle fill="#DDE72B" cx="87.95" cy="118.297" r="5.962"/>
		<circle fill="#DDE72B" cx="42.733" cy="98.421" r="5.962"/>
	</g>
</g>
<g>
	<g>
		<g>
			<path fill="#FFFFFF" d="M668.322,116.169h-15.402l-10.932-17.392h-20.871v17.392h-13.416V63.498h39.752
				c5.467,0,10.436,1.49,13.914,4.969c3.479,3.479,4.969,7.453,4.969,12.92c0,7.95-3.479,12.92-9.938,15.9L668.322,116.169z
				 M645.466,87.845c2.482,0,3.975-0.496,5.465-1.986c1.49-1.491,1.986-2.981,1.986-4.969c0-3.977-2.482-5.964-7.451-5.964h-24.35
				v12.919H645.466z"/>
		</g>
		<g>
			<path fill="#FFFFFF" d="M249.441,54.055c10.435,0,18.385,2.981,24.845,8.447c5.963,5.963,8.944,13.416,8.944,22.857
				c0,8.943-3.479,16.396-9.938,22.359c-5.963,5.467-13.416,7.95-21.863,7.95h-39.255V54.055H249.441L249.441,54.055z
				 M249.938,104.243c6.459,0,11.429-2.484,14.907-7.95c2.484-3.479,3.479-6.956,3.479-10.932c0-5.466-1.988-10.436-5.466-13.913
				c-3.479-3.479-7.951-5.466-13.417-5.466h-24.348v38.261H249.938L249.938,104.243z"/>
		</g>
		<g>
			<path fill="#FFFFFF" d="M352.795,116.169h-13.913l-6.459-12.919h-27.329l-6.459,12.919h-13.913l26.334-52.671h15.403
				L352.795,116.169z M326.957,93.311l-8.447-17.393l-8.447,17.393H326.957z"/>
		</g>
		<g>
			<path fill="#FFFFFF" d="M403.975,74.43h-22.36v41.738h-13.913V74.43h-22.36V63.498h58.633V74.43L403.975,74.43z"/>
		</g>
		<g>
			<path fill="#FFFFFF" d="M464.1,116.169h-13.914l-6.459-12.919h-27.329l-6.46,12.919h-13.913l26.335-52.671h15.404L464.1,116.169z
				 M438.758,93.311l-8.447-17.393l-8.447,17.393H438.758z"/>
		</g>
		<g>
			<path fill="#FFFFFF" d="M533.167,64.988h-26.336v51.181h-13.416V64.988h-26.832V54.055h66.583V64.988L533.167,64.988z"/>
		</g>
		<g>
			<path fill="#FFFFFF" d="M597.763,89.337c0,7.95-2.98,14.409-8.447,19.379c-6.459,5.467-14.906,8.447-24.844,8.447
				c-9.939,0-18.385-2.98-24.846-8.447c-5.467-4.97-8.447-11.429-8.447-19.379s2.98-14.41,8.447-19.379
				c6.461-5.466,14.906-8.447,24.846-8.447c9.938,0,17.889,2.981,24.844,8.447C595.279,75.424,597.763,81.883,597.763,89.337z
				 M583.851,89.337c0-4.473-1.988-8.446-5.467-11.429s-8.447-4.473-13.912-4.473c-5.963,0-10.436,1.49-13.914,4.473
				s-5.465,6.956-5.465,11.429c0,4.969,1.986,8.943,5.465,11.43c3.479,2.979,8.447,4.472,14.41,4.472s10.436-1.491,13.914-4.472
				C582.359,98.28,583.851,94.305,583.851,89.337z"/>
		</g>
		<g>
			<path fill="#FFFFFF" d="M740.373,116.169H724.97l-10.934-17.392h-20.869v17.392h-13.416V63.498h39.752
				c5.467,0,10.436,1.49,13.912,4.969c3.479,3.479,4.971,7.453,4.971,12.92c0,7.95-3.48,12.92-9.939,15.9L740.373,116.169z
				 M717.019,87.845c2.484,0,3.975-0.496,5.465-1.986c1.49-1.491,1.988-2.981,1.988-4.969c0-3.977-2.484-5.964-7.453-5.964h-24.348
				v12.919C692.669,87.845,717.019,87.845,717.019,87.845z"/>
		</g>
		<g>
			<path fill="#FFFFFF" d="M803.478,116.169H750.31V63.498h51.678v11.429h-37.766v9.44h25.84v10.932h-25.84v9.938h39.752v10.932
				H803.478z"/>
		</g>
		<g>
			<path fill="#FFFFFF" d="M875.527,116.169h-15.9l-29.812-34.782l0,0v34.782h-13.416V63.498h15.9l30.311,34.782V63.498h13.416
				L875.527,116.169L875.527,116.169z"/>
		</g>
		<g>
			<path fill="#FFFFFF" d="M944.595,74.43h-22.359v41.738H908.82V74.43h-22.361V63.498h58.635L944.595,74.43L944.595,74.43z"/>
		</g>
	</g>
</g>
<text transform="matrix(1 0 0 1 564.4751 169.3347)" fill="#CCCCCC" font-family="'HelveticaNeue'" font-size="58">console docs</text>
</svg>
